Coordinates
version=1
nRows=9
nColumns=36
inDegrees=yes

Units are S.I. units (second, meters, Newtons, ...)
If the header above contains a line with 'inDegrees', this indicates whether rotational values are in degrees (yes) or radians (no).

endheader
time	pelvis_tilt	pelvis_list	pelvis_rotation	pelvis_tx	pelvis_ty	pelvis_tz	hip_flexion_r	hip_adduction_r	hip_rotation_r	knee_angle_r	knee_angle_r_beta	ankle_angle_r	subtalar_angle_r	mtp_angle_r	hip_flexion_l	hip_adduction_l	hip_rotation_l	knee_angle_l	knee_angle_l_beta	ankle_angle_l	subtalar_angle_l	mtp_angle_l	lumbar_extension	lumbar_bending	lumbar_rotation	arm_flex_r	arm_add_r	arm_rot_r	elbow_flex_r	pro_sup_r	arm_flex_l	arm_add_l	arm_rot_l	elbow_flex_l	pro_sup_l
      6.00000000	     -9.88348452	      5.10075348	     -1.96195073	      0.01864176	      0.69903820	      0.11222085	     57.60874271	      9.14773813	     -4.65827471	     84.55283676	      1.47572539	     30.82888579	    -21.45399856	     -7.49999987	     56.89328544	     -5.31535235	     -7.46309708	      0.45413629	      0.00792617	    -19.61907905	     -4.68944372	     -7.49999987	    -31.23470648	     -0.23336838	     -5.19751706	     68.57648157	     10.44715768	     66.61219408	    127.97446602	     91.05649186	     80.44776628	     19.44047560	     65.14049510	    124.78385299	     71.68933385
      6.01666670	    -10.16165346	      5.30387665	     -2.00793823	      0.02183058	      0.70017632	      0.11219948	     57.82834216	      8.85227525	     -4.66551588	     84.66037942	      1.47760237	     31.42080718	    -20.51501791	     -7.49999987	     57.07487023	     -5.28279991	     -7.38368054	      0.43181259	      0.00753655	    -19.00190661	     -4.68360461	     -7.49999987	    -30.74613732	     -0.32353477	     -4.99665910	     68.66995935	     10.37803473	     66.78027509	    128.21351528	     87.84597867	     79.85985460	     19.59297231	     64.83689595	    125.08454486	     71.02780181
      6.03333330	    -10.22827317	      5.44452422	     -2.04534121	      0.02216630	      0.70242778	      0.11281473	     57.71886722	      8.61571754	     -4.63471235	     84.50191874	      1.47483671	     31.42623197	    -20.46189082	     -7.49999987	     57.11186175	     -5.25197438	     -7.37956878	      0.41974392	      0.00732591	    -18.90532352	     -4.77807614	     -7.49999987	    -30.54110486	     -0.33879948	     -4.87327054	     68.84342666	     10.42277282	     66.73351913	    128.23344183	     87.88267888	     79.88411026	     19.70849294	     64.81331217	    125.09581285	     71.06099452
      6.05000000	    -10.21651125	      5.70214426	     -2.12416633	      0.02398759	      0.70622846	      0.11304224	     57.30022199	      8.25509085	     -4.49182707	     84.18288005	      1.46926843	     31.72280646	    -19.57049032	     -7.49999987	     56.94405166	     -5.08895159	     -7.25910969	      0.42604860	      0.00743595	    -19.25388975	     -5.52972047	     -7.49999987	    -30.23638824	     -0.54230466	     -4.30245517	     68.93668722	     10.00045171	     66.24229787	    128.59683237	     93.41830596	     79.49352389	     20.25399359	     64.35331982	    124.74490446	     76.08026359
      6.06666670	    -10.11577941	      5.80302421	     -2.27369718	      0.02577868	      0.70863647	      0.11305765	     56.62431820	      8.05592190	     -4.40819047	     83.55722857	      1.45834875	     31.68828971	    -19.13881673	     -7.49999987	     56.63193100	     -5.02037995	     -6.95088562	      0.45490440	      0.00793958	    -19.34393947	     -5.61519835	     -7.49999987	    -29.78397653	     -0.51794417	     -4.12644894	     68.67724068	     10.17475006	     66.68441207	    128.64742234	     89.27182285	     78.99849713	     20.23698734	     64.38252334	    124.88732129	     74.29265299
      6.08333330	    -10.03526465	      5.96986192	     -2.34980616	      0.02586689	      0.71244310	      0.11304359	     56.01599867	      7.74383405	     -4.30834534	     82.82485386	      1.44556640	     31.28922138	    -18.94287307	     -7.49999987	     56.33136113	     -4.84959068	     -7.17653272	      0.46045674	      0.00803649	    -19.91788643	     -5.01171370	     -7.49999987	    -29.41775345	     -0.55199853	     -3.98203391	     68.46801529	     10.43303995	     66.88014652	    128.58625395	     89.53466197	     79.09838173	     20.39216390	     64.49711656	    124.69327467	     74.39968168
      6.10000000	    -10.05169834	      6.08025080	     -2.46489575	      0.02433127	      0.71605705	      0.11334060	     55.50127665	      7.51130022	     -4.27076852	     81.79767276	      1.42763871	     30.75043107	    -18.62415573	     -7.49999987	     56.31438991	     -4.76562843	     -7.61149703	      0.43794679	      0.00764361	    -19.72479094	     -5.18823206	     -7.49999987	    -28.95944718	     -0.56571912	     -3.98893547	     68.40845564	     10.60440712	     67.05712562	    128.60585494	     89.64427915	     79.35646040	     20.48745742	     64.53730376	    124.58301567	     74.43435095
      6.11666670	     -9.96670344	      6.02015465	     -2.60680762	      0.02465556	      0.71894988	      0.11355640	     54.93396531	      7.50629572	     -4.27567299	     80.92556363	      1.41241753	     30.10499907	    -18.32099590	     -7.49999987	     56.17934783	     -4.83668252	     -7.57794380	      0.44975314	      0.00784967	    -20.13275371	     -4.59033039	     -7.49999987	    -28.66404486	     -0.46108883	     -4.08792733	     68.39544753	     10.83159937	     67.61351276	    128.79982174	     89.91101650	     79.97108991	     20.29467059	     64.67505686	    124.29854748	     74.49774101
      6.13333330	     -9.91868982	      6.12590193	     -2.59924449	      0.02838865	      0.72549935	      0.11462826	     54.11105662	      7.19332576	     -4.34497406	     79.94366062	      1.39528009	     29.20785265	    -18.07756689	     -7.49999987	     55.82594752	     -4.76263335	     -7.78983194	      0.43020531	      0.00750850	    -19.67167255	     -4.85700850	     -7.49999987	    -28.25504671	     -0.52511228	     -4.29635167	     68.02494395	     10.94532244	     68.11822626	    128.93995984	     90.11517818	     80.11893857	     20.16158216	     65.00806002	    124.24034925	     74.53773960
